<?xml version="1.0" encoding="utf-8"?>
<svg version="1.1" xmlns:xlink="http://www.w3.org/1999/xlink" width="453px" height="297px" xmlns="http://www.w3.org/2000/svg">
  <defs>
    <filter x="153px" y="336px" width="453px" height="297px" filterUnits="userSpaceOnUse" id="filter41">
      <feOffset dx="0" dy="2" in="SourceAlpha" result="shadowOffsetInner" />
      <feGaussianBlur stdDeviation="2.5" in="shadowOffsetInner" result="shadowGaussian" />
      <feComposite in2="shadowGaussian" operator="atop" in="SourceAlpha" result="shadowComposite" />
      <feColorMatrix type="matrix" values="0 0 0 0 0  0 0 0 0 0  0 0 0 0 0  0 0 0 0.349019607843137 0  " in="shadowComposite" />
    </filter>
    <g id="widget42">
      <path d="M 163.5 369  A 24.5 24.5 0 0 1 188 344.5 L 571 344.5  A 24.5 24.5 0 0 1 595.5 369 L 595.5 596  A 24.5 24.5 0 0 1 571 620.5 L 188 620.5  A 24.5 24.5 0 0 1 163.5 596 L 163.5 369  Z " fill-rule="nonzero" fill="#81d3f8" stroke="none" fill-opacity="0.0980392156862745" />
      <path d="M 161 369  A 27 27 0 0 1 188 342 L 571 342  A 27 27 0 0 1 598 369 L 598 596  A 27 27 0 0 1 571 623 L 188 623  A 27 27 0 0 1 161 596 L 161 369  Z " stroke-width="6" stroke="#81d3f8" fill="none" />
    </g>
  </defs>
  <g transform="matrix(1 0 0 1 -153 -336 )">
    <use xlink:href="#widget42" filter="url(#filter41)" />
    <use xlink:href="#widget42" />
  </g>
</svg>