<?xml version="1.0" encoding="utf-8"?>
<svg version="1.1" xmlns:xlink="http://www.w3.org/1999/xlink" width="40px" height="40px" xmlns="http://www.w3.org/2000/svg">
  <g transform="matrix(1 0 0 1 -271 -434 )">
    <path d="M 10.4677547770701 8.75597133757962  C 9.890525477707 9.34315286624204  9.890525477707 10.2836385350318  10.4727308917197 10.8658439490446  C 11.0599124203822 11.453025477707  12.000398089172 11.453025477707  12.5875796178344 10.8658439490446  L 18.5539410828025 4.89948248407643  C 19.3302149681529 4.12320859872611  20.5891719745223 4.12320859872611  21.3704219745223 4.89948248407643  L 27.3367834394904 10.8658439490446  C 27.9189888535032 11.4480493630573  28.8644506369427 11.4480493630573  29.4466560509554 10.8658439490446  C 30.0288614649681 10.2836385350318  30.0288614649682 9.33817675159236  29.4466560509554 8.75597133757962  L 21.3505175159236 0.669785031847134  C 20.5742436305733 -0.106488853503185  19.3103105095541 -0.106488853503185  18.5340366242038 0.669785031847134  L 10.4677547770701 8.75597133757962  Z M 39.8616640127389 36.8411624203822  C 39.8616640127389 38.4882563694268  38.5230891719745 39.8268312101911  36.8759952229299 39.8268312101911  L 3.03841560509554 39.8268312101911  C 1.39132165605096 39.8268312101911  0.052746815286626 38.4882563694268  0 36.8411624203822  L 0 23.4404856687898  C 0.052746815286626 22.624402866242  0.689689490445862 21.937699044586  1.50577229299363 21.9128184713376  C 2.34673566878981 21.8929140127389  3.03841560509554 22.5696656050955  3 23.405652866242  L 3 35.3483280254777  C 3.03841560509554 36.1743630573248  3.70521496815287 36.8411624203822  4.53125 36.8411624203822  L 35.3831608280255 36.8411624203822  C 36.2091958598726 36.8411624203822  36.8759952229299 36.1743630573248  36.8759952229299 35.3483280254777  L 36.8759952229299 23.4404856687898  C 36.8759952229299 22.624402866242  37.5129378980892 21.937699044586  38.329020700637 21.9128184713376  C 39.1699840764331 21.8929140127389  39.8616640127389 22.5696656050955  39.8616640127389 23.405652866242  L 39.8616640127389 36.8411624203822  Z " fill-rule="nonzero" fill="#000000" stroke="none" transform="matrix(1 0 0 1 271 434 )" />
  </g>
</svg>