<?xml version="1.0" encoding="utf-8"?>
<svg version="1.1" xmlns:xlink="http://www.w3.org/1999/xlink" width="404px" height="404px" xmlns="http://www.w3.org/2000/svg">
  <defs>
    <linearGradient gradientUnits="userSpaceOnUse" x1="974" y1="249" x2="974" y2="544.5" id="LinearGradient24">
      <stop id="Stop25" stop-color="#ffffff" stop-opacity="0.4" offset="0" />
      <stop id="Stop26" stop-color="#add0ee" stop-opacity="0.4" offset="1" />
    </linearGradient>
    <filter x="774px" y="246px" width="404px" height="404px" filterUnits="userSpaceOnUse" id="filter27">
      <feOffset dx="2" dy="2" in="SourceAlpha" result="shadowOffsetInner" />
      <feGaussianBlur stdDeviation="2.5" in="shadowOffsetInner" result="shadowGaussian" />
      <feComposite in2="shadowGaussian" operator="atop" in="SourceAlpha" result="shadowComposite" />
      <feColorMatrix type="matrix" values="0 0 0 0 0  0 0 0 0 0  0 0 0 0 0  0 0 0 0.349019607843137 0  " in="shadowComposite" />
    </filter>
    <g id="widget28">
      <path d="M 974 249  C 1084.32 249  1171 335.68  1171 446  C 1171 556.32  1084.32 643  974 643  C 863.68 643  777 556.32  777 446  C 777 335.68  863.68 249  974 249  Z " fill-rule="nonzero" fill="url(#LinearGradient24)" stroke="none" />
      <path d="M 974 249.5  C 1084.04 249.5  1170.5 335.96  1170.5 446  C 1170.5 556.04  1084.04 642.5  974 642.5  C 863.96 642.5  777.5 556.04  777.5 446  C 777.5 335.96  863.96 249.5  974 249.5  Z " stroke-width="1" stroke="#d7d7d7" fill="none" />
    </g>
  </defs>
  <g transform="matrix(1 0 0 1 -774 -246 )">
    <use xlink:href="#widget28" filter="url(#filter27)" />
    <use xlink:href="#widget28" />
  </g>
</svg>