<?xml version="1.0" encoding="utf-8"?>
<svg version="1.1" xmlns:xlink="http://www.w3.org/1999/xlink" width="323px" height="323px" xmlns="http://www.w3.org/2000/svg">
  <defs>
    <linearGradient gradientUnits="userSpaceOnUse" x1="974.5" y1="290" x2="974.5" y2="524.75" id="LinearGradient29">
      <stop id="Stop30" stop-color="#ffffff" stop-opacity="0.8" offset="0" />
      <stop id="Stop31" stop-color="#add0ee" stop-opacity="0.8" offset="1" />
    </linearGradient>
    <filter x="815px" y="287px" width="323px" height="323px" filterUnits="userSpaceOnUse" id="filter32">
      <feOffset dx="2" dy="2" in="SourceAlpha" result="shadowOffsetInner" />
      <feGaussianBlur stdDeviation="2.5" in="shadowOffsetInner" result="shadowGaussian" />
      <feComposite in2="shadowGaussian" operator="atop" in="SourceAlpha" result="shadowComposite" />
      <feColorMatrix type="matrix" values="0 0 0 0 0  0 0 0 0 0  0 0 0 0 0  0 0 0 0.349019607843137 0  " in="shadowComposite" />
    </filter>
    <g id="widget33">
      <path d="M 974.5 290  C 1062.14 290  1131 358.86  1131 446.5  C 1131 534.14  1062.14 603  974.5 603  C 886.86 603  818 534.14  818 446.5  C 818 358.86  886.86 290  974.5 290  Z " fill-rule="nonzero" fill="url(#LinearGradient29)" stroke="none" />
      <path d="M 974.5 290.5  C 1061.86 290.5  1130.5 359.14  1130.5 446.5  C 1130.5 533.86  1061.86 602.5  974.5 602.5  C 887.14 602.5  818.5 533.86  818.5 446.5  C 818.5 359.14  887.14 290.5  974.5 290.5  Z " stroke-width="1" stroke="#d7d7d7" fill="none" />
    </g>
  </defs>
  <g transform="matrix(1 0 0 1 -815 -287 )">
    <use xlink:href="#widget33" filter="url(#filter32)" />
    <use xlink:href="#widget33" />
  </g>
</svg>