<?xml version="1.0" encoding="utf-8"?>
<svg version="1.1" xmlns:xlink="http://www.w3.org/1999/xlink" width="178px" height="194px" xmlns="http://www.w3.org/2000/svg">
  <g transform="matrix(1 0 0 1 -885 -349 )">
    <path d="M 177.467735636039 79.6028040898438  C 177.467735636039 35.1042338808594  141.307152970024 -0.669126650390623  97.0249420388927 0.0095006953125  C 52.5493592221467 0.59118127734375  17.1622648543648 38.2065305078125  18.9992999405571 82.5112073789062  C 18.9026139032778 83.1898347246094  18.9026139032778 83.2867816777344  18.9026139032778 88.8127477753906  L 1.30575285113791 117.508993611328  C -0.724654120669158 120.90213071875  1.69249700025476 125.167788888672  5.55993905825408 125  L 19 125  L 19 147.271653847656  C 18.9026139032779 156.966331541016  26.7341838676121 164.819020345703  36.4027889181386 164  L 66 164  L 66 188.958767720703  C 65.4086038807745 191.770224246094  67.6323831160836 194  70.4362783861243 194  L 125.934070964249 194  C 128.737966423234 194  130.961745469599 191.770224056641  130.961745658543 188.958767720703  C 130.961745658543 167.533530107422  139.180059960937 149.986163609375  152.23267650518 137.673923107422  C 168.282560771909 122.64717284375  177.467735447096 101.512775521484  177.467735636039 79.6028040898438  Z M 167.412386436396 79.4089105625  C 167.412386436396 98.7013189960937  159.387444397503 117.121206556641  145.367967102582 130.209021167969  C 130.671687546705 143.975463314453  121.969943057914 163.2678719375  121.003082496179 183  L 76 183  L 76 159.680841302734  C 75.4639530804178 156.869384777344  73.2401738451087 154.639609023438  70.4362783861243 154  L 36.4027889181386 154  C 32.3419747855808 154.639608833984  28.9579631029212 151.343418490234  29 147.174707083984  L 29 120.02960965625  C 28.9579631029212 117.218153130859  26.7341838676121 114.988377376953  23.9302884086277 114.988377376953  L 14.5517416588825 114.988377376953  C 29.4413932893173 90.9455769550781  28.9579631029212 92.2058848828125  28.9579631029212 90.17000265625  L 28.9579631029212 84.353196078125  C 29.4413932893173 82.3173138515625  25.4772653829823 54.2996953613281  49.3587196140455 30.353841703125  C 92.8674420579993 -13.1752608691406  167.412386436396 17.6538139570312  167.412386436396 79.4089105625  Z " fill-rule="nonzero" fill="#000000" stroke="none" transform="matrix(1 0 0 1 885 349 )" />
  </g>
</svg>