<?xml version="1.0" encoding="utf-8"?>
<svg version="1.1" xmlns:xlink="http://www.w3.org/1999/xlink" width="106px" height="95px" xmlns="http://www.w3.org/2000/svg">
  <g transform="matrix(1 0 0 1 -938 -367 )">
    <path d="M 100.182755759943 85.161818100287  C 108.369170578835 66.5597856644611  106.539265965909 45.0511858557876  95.2709069815341 27.8055516282685  C 76.4903084232954 -1.06635284797513  37.5807606285511 -8.62342847177934  9.55432900923294 11.8194300362723  C 3.6793725497159 16.179281379544  -4.98859601562501 27.9993227738361  4.44985873224431 41.8539615752551  C 17.2591900816761 60.6497651566486  34.3061949644886 50.6705498345823  38.0623145632102 52.2207191884566  C 38.7364898082386 53.0926895328444  38.5438683096591 55.7086001873406  38.5438683096591 56.5805705317283  C 38.4475575603693 58.8089390844228  38.3512468110795 61.715506646604  39.4106652414772 64.5251884466677  C 43.8409602734375 76.5390009865274  60.4064112215909 73.5355478515625  62.140004897017 73.6324334243463  C 62.4289371448863 74.3106324338329  62.9104910795454 75.6670306421397  63.2957340767045 76.6358865593112  C 71.0005949609375 99.1133422851563  94.0188670525568 99.4039991928412  100.182755759943 85.161818100287  Z M 86.9881814133523 33.3280300342793  C 96.3303252237216 47.7639822724012  97.7749866512784 65.6878155094069  91.0332334481534 81.2863948102679  C 90.1664365163352 83.3209920280612  88.1439105930398 84.8711613819356  85.832452421875 84.8711613819356  C 79.7648744637784 84.8711613819356  75.3345794318182 81.0926234753667  72.8304995738636 73.5355478515625  C 70.6153519637784 67.0442137177136  68.4965152911932 62.8781335200096  58.9617497940341 63.8469894371811  C 54.7240762606534 64.3314173011001  49.8122274822443 63.6532182916135  48.8491198011364 61.1341930205676  C 48.3675660546875 59.7777948122608  48.6564983025568 57.4525406867825  48.6564983025568 54.9335156050701  C 48.6564983025568 49.7016939174107  46.6339723792614 45.5356139090402  42.9741633416193 43.5010165019133  C 33.2467763458807 38.0754236686862  22.6525926065341 50.7674354073661  12.8288948615057 36.2345975964604  C 6.76131690340908 27.3211237643495  14.080934790483 21.120446348852  15.5255962180398 19.9578192861129  C 38.9291113068182 2.90595620416135  71.2895273970171 9.2035191924426  86.9881814133523 33.3280300342793  Z " fill-rule="nonzero" fill="#d9001b" stroke="none" transform="matrix(1 0 0 1 938 367 )" />
  </g>
</svg>